<svg viewBox="0 0 40 40" xmlns="http://www.w3.org/2000/svg">
    <style type="text/css">
        path
        {
            fill: #000;
        }
    </style>

    <path class="fil1" d="M8.981 31.5771c0.5989,0.9579 3.343,2.5801 4.5547,3.0963 5.0451,2.1493 10.7001,1.6947 15.2131,-1.3098 0.5737,-0.3819 1.8375,-1.3044 2.1433,-1.7865 -0.6476,-2.2588 -2.5436,-4.4686 -3.9476,-5.4866 -4.3543,-3.1574 -9.7267,-3.174 -14.0207,0.0007 -1.4092,1.042 -3.2788,3.189 -3.9428,5.4859z"/>
    <path class="fil1" d="M19.4459 9.6201c-3.4741,0.2915 -6.3394,3.2332 -6.0446,7.0592 0.2663,3.4556 3.3155,6.3277 7.1268,5.9997 3.4197,-0.2943 6.2608,-3.2967 5.9345,-7.1069 -0.2905,-3.391 -3.2886,-6.2648 -7.0167,-5.952z"/>
    <path class="fil1" d="M2.6115 20.9092c-0.5037,-9.8094 7.2261,-17.7353 16.4767,-18.1693 9.7986,-0.4597 17.7545,7.1861 18.1742,16.5032 0.4316,9.5823 -6.9399,17.6809 -16.4834,18.1447 -9.8783,0.4802 -17.6902,-7.1831 -18.1675,-16.4786zm15.7732 -19.2727c-9.6313,0.7873 -17.8108,9.3568 -16.8768,19.9935 0.8493,9.6719 9.2949,17.7898 20.0258,16.8576 9.6221,-0.8359 17.7716,-9.2999 16.8241,-20.0254 -0.8489,-9.6088 -9.2604,-17.7015 -19.9731,-16.8257z"/>
</svg>
