<?xml version="1.0" encoding="UTF-8"?>
<!DOCTYPE svg  PUBLIC '-//W3C//DTD SVG 1.1//EN'  'http://www.w3.org/Graphics/SVG/1.1/DTD/svg11.dtd'>
<svg width="1919px" height="1047px" clip-rule="evenodd" fill-rule="evenodd" image-rendering="optimizeQuality" shape-rendering="geometricPrecision" text-rendering="geometricPrecision" version="1.1" viewBox="0 0 1919 1046.7" xml:space="preserve" xmlns="http://www.w3.org/2000/svg">
 <defs>
  <style type="text/css">
   <![CDATA[
    .fil3 {fill:black}
    .fil7 {fill:#302918}
    .fil5 {fill:#313131}
    .fil8 {fill:#4A4A4A}
    .fil2 {fill:#5A5A5A}
    .fil1 {fill:#737B8C}
    .fil4 {fill:#A5A5A5}
    .fil6 {fill:#C6C6C6}
    .fil11 {fill:#ECAB76}
    .fil0 {fill:#FF9439}
    .fil9 {fill:#FFAD5A}
    .fil10 {fill:white}
   ]]>
  </style>
 </defs>
 
  
  <path class="fil0" d="m303.82 539.15c8.18-1.36 42.25-2.72 49.07 1.37v6.81c-4.09 2.73-4.09 1.37-12.27 1.37h-36.8v-9.55zm-122.66-199.04 4.09 1.36c0 9.54-2.73 46.35 1.36 51.81l20.44-44.99 2.73-2.73c21.81 0 144.47-2.73 154.01 1.36l-9.54 148.61-92.68 12.27-16.35 2.72-5.46 1.37-39.52 5.45c-9.54 1.36-54.52 9.54-61.33 6.82-10.91-9.55 5.45-36.81 9.54-47.72 6.81-15 14.99-29.99 20.44-44.99-2.72-4.09 1.37-2.73 0-17.72l-39.52 91.34c-1.37 5.45 4.09 115.88 4.09 128.15s1.36 77.71 4.08 83.17l81.78 1.36c8.18-20.45 27.26-53.17 47.7-64.08 24.54-12.27 69.51-12.27 98.13-13.63 2.73-24.54 0-51.81 2.73-76.35 1.36-23.17 1.36-51.8 1.36-76.34 1.37-20.45 5.45-143.15 4.09-152.7-8.18-2.72-100.86-1.36-111.76 0-17.72 2.73-36.8 0-54.52 1.37-8.17 0-6.81 5.45-10.9 14.99l-10.9 19.09c0-5.45 6.81-21.81 9.54-27.27 2.72-4.09 4.09-6.81 4.09-10.9l177.18-2.73-2.73 158.15c-1.36 25.9-2.72 53.17-2.72 79.07 0 13.63 1.36 69.53-4.09 77.71-24.54-1.36-74.96 2.73-96.77 12.27-28.62 13.63-42.25 55.9-47.7 62.71l-88.59 1.37c-1.37-15-1.37-34.09-2.73-49.08-1.36-46.36-1.36-89.98-4.09-137.7-1.36-25.9-2.72-24.54 4.09-43.63 6.81-14.99 35.44-76.34 38.16-88.61v-12.27c0-5.46 1.37-8.18 1.37-13.64-2.73-2.72 0-1.36-5.46-1.36l-49.06 109.07c-17.72 38.17-5.45 96.79-9.54 148.6 24.53-1.36 19.08 6.82 19.08 28.63 0 9.54 1.36 39.54-1.36 47.72-5.46 1.36-9.54 1.36-16.36 1.36v17.72l9.54 1.37h1.36 114.49c10.9-40.9 38.16-69.53 83.14-70.9 13.63-4.09 237.15 1.37 250.78-1.36l-1.37-17.72 1.37-58.63v-13.63-1.36-219.5-29.99h-29.99c-13.63 0-10.9-1.37-19.08-10.91-5.45-4.09-9.54-12.27-16.35-13.63l-141.75-5.45c-32.71-1.37-74.96-8.19-102.22 13.63-21.8 16.36-13.63 16.36-42.25 16.36-23.17 0-24.53 5.45-34.07 24.54z"/>
  <path class="fil1" d="m1591.8 543.24h216.7l1.36 104.98c-27.25-1.36-208.52 1.36-218.06-1.36-1.37-6.82-1.37-98.16 0-103.62zm-464.76-1.36 216.7 1.36c2.73 8.18 2.73 99.53 0 103.62-5.45 2.72-194.89 1.36-216.7 1.36-2.73-6.82-2.73-96.8 0-106.34zm-234.42 106.34c-1.37-9.54-1.37-99.52 1.36-104.98h216.7c1.37 6.82 2.73 99.53-1.36 104.98h-216.7zm-12.27 19.09v14.99h2.73 9.54v-9.54l2.72-1.36c-4.09-4.09-4.09-5.46-1.36-10.91 10.9-2.73 211.25-1.36 216.7 0l1.37 10.91v10.9h12.26l1.37-10.9v-12.27h219.43v9.54c-6.82 2.73-151.29 1.36-182.64 1.36h-13.62-6.82l-5.45 1.37h204.44c2.72-1.37 23.17-10.91 25.89-12.27 6.82-4.09 25.9-8.18 28.63-9.55-2.73-4.09-29.99-1.36-36.8-1.36v-104.98c29.98 0 205.8-4.09 218.06 0 1.37 9.55 1.37 98.16-1.36 104.98h-96.77c5.46 2.73 12.27 4.09 17.72 6.82 6.82 2.72 10.91 4.09 17.72 6.81-1.36-2.72-1.36-1.36 0-2.72h62.69v10.9c-8.17 1.37-42.25 1.37-49.06-1.36 4.09 2.73 1.36 1.36 6.81 2.73h42.25v10.9h13.63v-9.54c8.18-2.73 115.85-1.36 132.21-1.36-9.54-4.09-109.04 1.36-130.84-1.37v-9.54c6.81-2.73 92.68-1.36 107.67-1.36 17.72 0 99.49-1.37 109.03 1.36l1.36 10.91v10.9h13.63v-10.9h8.18v-140.43h-8.18v-12.27h-13.63v12.27h-219.43v-12.27h-13.63v12.27h-218.06v-12.27h-13.63v12.27h-219.43v-12.27h-13.63l-1.37 12.27h-218.06v-173.14h-12.27v309.48z"/>
  <path class="fil2" d="m138.91 822.73h49.06v8.18c-13.63 0-38.16-1.37-49.06 0v-8.18zm0-6.82 1.36-5.45h1.36 1.37 44.97v8.18l-36.8-1.37c-14.99 1.37-10.9 0-12.26-1.36zm0-12.27c-1.37-5.45-1.37-4.09 1.36-9.54h46.34l1.36 8.18-49.06 1.36zm0-23.18 47.7-1.36 1.36 8.18-49.06 1.36v-8.18zm177.18-122.7c35.43-2.72 80.41-1.36 117.21-1.36 17.72 0 109.03-1.36 118.57 2.73l-1.36 5.45c-66.78 2.73-136.29 1.36-203.07 1.36-34.08 0-53.16 0-77.69 24.54-21.81 19.09-28.62 50.45-38.16 64.08h-113.13v-25.9h-1.36c1.36 44.99-4.09 13.63-4.09 34.08 0 15-1.36 64.08 2.73 74.98 4.09 9.55 8.18 19.09 10.9 28.63h122.67c13.62-9.54-24.54-113.15 83.13-159.51 21.81-10.9 46.34-12.27 70.88-9.54 13.62 2.73 34.07 6.82 55.88 24.54 12.26 10.91 34.07 32.72 39.52 51.81h28.62v-104.98h106.31l1.36-29.99h-69.51l1.37 17.72c-13.63 2.73-237.15-2.73-250.78 1.36z"/>
  <path class="fil0" d="m792.78 826.6m-61.33-267.21 61.33 267.21zm-61.33-267.21c14.99-9.54 27.26 15 12.27 23.18-15 8.18-29.99-12.27-12.27-23.18zm-17.72 31.36c4.09 12.27 1.36 80.43 1.36 98.16 0 24.54-4.08 70.89 8.18 89.98 14.99 1.36 44.98-1.37 58.61 0 16.35 4.09 9.54 34.08 10.9 47.71-19.08-1.36-36.8 0-44.98 19.09-2.72 8.18-4.08 17.72 0 25.9 2.73 9.55 6.82 10.91 13.63 17.73 4.09 1.36 6.82 2.72 10.91 2.72 6.81 1.37 9.54 0 14.99 4.09 6.81 5.46 1.36 15-5.45 19.09-8.18 5.45-13.63 8.18-23.17 8.18-8.18 0-23.17-1.36-29.99 1.36l-1.36 6.82h185.36v-8.18h-36.8c-16.36 0-34.07-15-25.9-27.27 6.82-8.18 36.8 5.46 35.44-19.08 0-9.55-10.9-12.27-12.27-24.54-1.36-12.27 8.18-13.64 13.63-23.18 2.73-8.18 1.37-25.9 0-34.08-13.63-38.18-68.14-16.36-99.49-84.53-6.82-15-23.17-98.16-27.26-119.97-4.09-16.36-2.73-39.54-23.17-40.9-32.71-2.73-17.72 29.99-23.17 40.9z"/>
  <path class="fil3" d="m373.33 747.74c44.98-4.09 81.78 25.91 87.23 69.53 5.45 43.63-25.9 81.8-69.51 87.26-42.25 4.09-83.14-27.27-87.23-69.53-2.72-43.63 25.9-81.8 69.51-87.26zm-83.14 1.37c-14.99 16.36-28.62 53.17-27.26 74.98-4.08 59.99 46.34 113.16 103.59 121.34 34.07 4.09 61.33-5.46 88.59-23.18 16.35-12.27 39.52-43.63 43.61-68.17 2.73-12.27 5.45-24.54 2.73-40.9-2.73-19.08-12.27-47.71-25.9-61.35-32.71-40.9-89.95-58.62-139.02-35.44-24.53 10.9-28.62 13.63-46.34 32.72z"/>
  <path class="fil4" d="m1127 541.88c-2.73 9.54-2.73 99.52 0 106.34 21.81 0 211.25 1.36 216.7-1.36 2.73-4.09 2.73-95.44 0-103.62l-216.7-1.36z"/>
  <path class="fil4" d="m1109.3 648.22c4.09-5.45 2.73-98.16 1.36-104.98h-216.7c-2.73 5.46-2.73 95.44-1.36 104.98h216.7z"/>
  <path class="fil4" d="m1395.5 649.58c13.62-2.72 28.62-5.45 42.25-5.45s29.98 4.09 40.88 4.09h96.77c2.73-6.82 2.73-95.43 1.36-104.98-12.26-4.09-188.08 0-218.06 0v104.98c6.81 0 34.07-2.73 36.8 1.36z"/>
  <path class="fil4" d="m1591.8 543.24c-1.37 5.46-1.37 96.8 0 103.62 9.54 2.72 190.81 0 218.06 1.36l-1.36-104.98h-216.7z"/>
  <path class="fil5" d="m527.34 668.67h70.87c-12.26 5.45-16.35 5.45-27.25 16.36-16.36 17.72-17.72 46.35-4.09 64.08 10.9 14.99 19.08 14.99 23.17 21.81h-62.7v-102.25zm-28.62 104.98v1.36h53.15c10.91 0 12.27 1.36 15-2.73h17.71v6.82h27.26v46.35l35.44 1.37v9.54h17.72v-46.35h14.99v46.35h14.99v-46.35h14.99v46.35h16.36v-46.35h14.99v46.35h64.06l1.36-4.09-1.36 1.36v-81.8h-152.65c0-9.54 13.63-19.08 6.82-43.62-2.73-16.36-9.54-20.45-19.09-30-9.54-5.45-2.72-4.09-6.81-9.54h-106.31v104.98h-28.62z"/>
  <path class="fil2" d="m1395.5 649.58c-2.73 1.37-21.81 5.46-28.63 9.55-2.72 1.36-23.17 10.9-25.89 12.27-1.36 0-32.71 25.9-32.71 25.9-2.73 5.45-13.63 16.36-19.08 23.18-31.35 43.62-28.62 76.34-34.08 84.52v9.55 6.81l-23.17 4.09v8.18h-8.17v-9.54h-39.53v9.54h-47.7c-4.09-4.09-1.36-2.72-2.73-9.54-6.81 0-38.16 1.36-39.52 0v29.99c-4.09 2.73 1.36 1.37-4.09 1.37 1.36 4.09 16.35 1.36 21.81 1.36h23.17v-16.36h49.06v16.36h39.53v-16.36h6.81c2.73 4.09 1.36 10.91 1.36 16.36h10.91v-32.72l12.26-1.36v17.72h32.71v-17.72h12.27v-1.37h-12.27c2.73-80.43 70.88-143.15 149.93-143.15 80.41 0 145.83 62.72 148.55 143.15l-12.26 1.37h12.26v17.72l32.71-1.36 1.37-16.36h103.58v-35.45h-2.73v34.08h-100.85c-1.37-19.08-4.09-32.72-9.54-50.44-2.73-9.54-6.82-17.72-10.91-27.27-2.72-5.45-13.63-21.81-13.63-24.54-6.81-4.09-17.71-19.08-24.53-25.9-5.45-5.45-24.53-16.36-27.26-21.81-5.45-1.37-2.72 0-6.81-2.73l-13.63-6.82c-6.81-2.72-10.9-4.09-17.72-6.81-5.45-2.73-12.26-4.09-17.72-6.82-10.9 0-27.25-4.09-40.88-4.09s-28.63 2.73-42.25 5.45z"/>
  <path class="fil0" d="m865.35 123.34c10.9 4.09 14.99 4.09 21.8 15 5.46 10.9 2.73 20.45-1.36 29.99h190.81c27.26 0 46.34 5.45 50.43-13.63v-1.37c0-13.63-29.99-40.9-36.8-54.53l-9.54-8.18h-184c-8.17 6.82-8.17 6.82-14.99 16.36-4.09 4.09-9.54 15-16.35 16.36z"/>
  <path class="fil0" d="m855.81 141.06c17.71-8.18 27.26 17.73 12.26 23.18-14.99 8.18-28.62-13.63-12.26-23.18zm-23.17 4.09c-4.09 5.46-118.58 62.72-133.57 70.9-21.81 9.54-47.7 23.17-68.15 34.08-12.26 8.18-20.44 17.72-10.9 32.72 2.73 5.45 20.44 24.54 24.53 27.26 0-12.27 0-19.08 8.18-28.62 6.82-8.19 14.99-10.91 25.9-10.91 24.53 1.36 31.34 21.81 27.25 43.62l136.3-119.97c10.9-9.54 8.17-10.9 23.17-13.63h-5.45c5.45-10.91 35.43-21.81 17.71-40.9-14.99-19.09-35.43 8.18-44.97 5.45z"/>
  <path class="fil6" d="m366.52 879.99h28.62v16.36h-28.62v-16.36zm72.23-70.9h16.36v27.27h-16.36v-27.27zm-122.66 0h17.72v27.27h-16.36l-1.36-27.27zm89.95 6.82c10.9 4.09 1.36 28.63-9.54 34.08-10.9 6.82-27.26 4.09-32.71-4.09-5.45-6.81-1.36 0-1.36-2.72-12.27-10.91-5.45-32.72 6.81-39.54 13.63-8.18 31.35-2.73 36.8 12.27zm-38.16-57.26h27.26v17.72h-28.62l1.36-17.72zm5.45-10.91c-43.61 5.46-72.23 43.63-69.51 87.26 4.09 42.26 44.98 73.62 87.23 69.53 43.61-5.46 74.96-43.63 69.51-87.26-5.45-43.62-42.25-73.62-87.23-69.53z"/>
  <path class="fil3" d="m1586.3 719.11c0 2.73 10.91 19.09 13.63 24.54 4.09 9.55 8.18 17.73 10.91 27.27l65.42 1.36v15h13.63v28.63h16.35v-28.63h14.99 2.73 6.81v61.35h20.45v-58.62h80.41v-38.18h-85.86v9.55h-10.91v-46.36l-10.9-1.36h-1.36c-21.81 1.36-46.34 0-69.51 0-16.36 0-53.16-1.36-66.79 1.36v4.09z"/>
  <path class="fil7" d="m1135.2 795.46h119.93v9.54c5.46-8.18 2.73-40.9 34.08-84.52 5.45-6.82 16.35-17.73 19.08-23.18-9.54 4.09-70.87 1.36-85.87 1.36-27.26 0-59.97 2.73-85.86 0l-1.36 96.8z"/>
  <path class="fil2" d="m971.66 723.2 149.92-1.36v62.71h-149.92v-61.35zm163.55 72.26 1.36-96.8v-27.26h-10.9l-1.37 10.9h-12.26v-10.9h-155.38v124.06h178.55z"/>
  <path class="fil3" d="m633.65 601.87-36.8-12.27c-1.36 0-4.09-1.37-5.45-1.37-6.82-2.72-1.36 1.37-6.82-2.72l-17.71-5.46-1.37 58.63h69.51 13.63v-17.73l51.79 1.37c-6.81-6.82-10.9-8.18-13.63-17.73-4.08-8.18-2.72-17.72 0-25.9 8.18-19.09 25.9-20.45 44.98-19.09-1.36-13.63 5.45-43.62-10.9-47.71-13.63-1.37-43.62 1.36-58.61 0-25.89 1.36-20.44 14.99-20.44 36.81v55.89l-8.18-2.72z"/>
  <polygon class="fil3" points="665 667.31 666.36 698.66 805.38 698.66 805.38 751.83 805.38 833.63 806.74 832.27 838.09 833.63 836.73 805 838.09 698.66 851.72 698.66 851.72 665.94 851.72 664.58 666.36 664.58"/>
  <path class="fil7" d="m261.57 507.8 92.68-12.27 9.54-148.61-40.89-1.36c0 6.82-27.26 68.17-31.34 80.44-5.46 12.27-29.99 74.98-34.08 80.43 2.73 2.73-2.72 1.37 4.09 1.37z"/>
  <path class="fil3" d="m883.07 682.3v113.16h-16.36v9.54 6.82c40.89 1.36 81.78 0 121.3 0 10.9 0 5.45 2.73 23.17 2.73 16.36 0 34.07-1.37 49.07 0 2.72 5.45 0 4.09 2.72 6.81 5.45-1.36 0-1.36 4.09-6.81h188.08v-9.55-9.54h-119.93-178.55v-124.06h-12.26v124.06h-49.07v-124.06l-2.72 1.36v9.54h-9.54z"/>
  <path class="fil7" d="m207.05 348.29-20.44 44.99c-4.09 6.81-1.36 40.9-1.36 51.8 0 38.18 4.09 42.27-13.63 39.54-2.73-8.18 0-20.45 0-28.63 0-5.45 1.36-20.45-2.73-24.54-5.45 15-13.63 29.99-20.44 44.99-4.09 10.91-20.45 38.17-9.54 47.72 6.81 2.72 51.79-5.46 61.33-6.82l-5.45-1.36c1.36-6.82 13.63-34.09 17.72-42.27l51.79-128.15h-55.88l-1.37 2.73z"/>
  <polygon class="fil6" points="971.66 784.55 1121.6 784.55 1121.6 721.84 971.66 723.2"/>
  <path class="fil8" d="m207.05 348.29 1.37-2.73h55.88l-51.79 128.15c-4.09 8.18-16.36 35.45-17.72 42.27l5.45 1.36 39.52-5.45c-5.45-1.37-1.36 0-4.08-2.73 9.54-16.36 59.96-148.6 68.14-163.6l8.18 1.36c-4.09 6.82-44.98 107.71-51.79 124.07-2.73 6.81-5.45 13.63-8.18 20.45-8.18 20.45-6.81 9.54-6.81 19.08l16.35-2.72c-6.81 0-1.36 1.36-4.09-1.37 4.09-5.45 28.62-68.16 34.08-80.43 4.08-12.27 31.34-73.62 31.34-80.44l40.89 1.36c-9.54-4.09-132.2-1.36-154.01-1.36l-2.73 2.73z"/>
  <path class="fil2" d="m640.46 678.21c9.55 9.55 16.36 13.64 19.09 30 6.81 24.54-6.82 34.08-6.82 43.62h152.65v-53.17h-139.02l-1.36-31.35h-23.17c0 4.09 0 6.81-1.37 10.9z"/>
  <path class="fil2" d="m1127 153.33v1.37c23.17 0 4.09 5.45 31.35 4.09h73.59c12.27 0 24.54 4.08 27.26-9.55 0-14.99-21.8-29.99-27.26-43.62-4.08-2.73-2.72-4.09-8.17-6.82-5.45-1.36-118.58 0-124.03 0l36.8 54.53h-9.54z"/>
  <path class="fil7" d="m1586.3 719.11v-4.09c13.63-2.72 50.43-1.36 66.79-1.36 23.17 0 47.7 1.36 69.51 0v-42.26c-16.36 0-124.03-1.37-132.21 1.36v9.54h-13.63v-10.9h-42.25c2.73 5.45 21.81 16.36 27.26 21.81 6.82 6.82 17.72 21.81 24.53 25.9z"/>
  <path class="fil7" d="m118.46 728.66v25.9h113.13c9.54-13.63 16.35-44.99 38.16-64.08 24.53-24.54 43.61-24.54 77.69-24.54 66.78 0 136.29 1.37 203.07-1.36l1.36-5.45c-9.54-4.09-100.85-2.73-118.57-2.73-36.8 0-81.78-1.36-117.21 1.36-44.98 1.37-72.24 30-83.14 70.9h-114.49z"/>
  <path class="fil5" d="m566.87 565.06 24.53-1.37c8.18-1.36 5.45-17.72 5.45-24.54v-159.51c0-36.81 5.45-32.72-29.98-34.08v219.5z"/>
  <polygon class="fil2" points="944.4 671.4 895.33 671.4 895.33 795.46 944.4 795.46"/>
  <path class="fil2" d="m508.26 810.46c1.36 8.18 0 8.18 0 54.53h57.24l1.37-84.53h17.71c0 16.36 0 30 1.37 81.8l54.51 1.37c6.82-1.37 4.09 1.36 6.82-2.73h-61.33c0-17.72 0-46.35-1.37-81.8v-6.82h-17.71c-2.73 4.09-4.09 2.73-15 2.73h-53.15c4.09 9.54 8.18 27.27 9.54 35.45z"/>
  <path class="fil5" d="m1090.2 855.45c5.45 0 0 1.36 4.09-1.37v-29.99c1.36 1.36 32.71 0 39.52 0 1.37 6.82-1.36 5.45 2.73 9.54l-1.36-9.54h49.06 39.53l8.17 1.36 23.17-4.09v-6.81h-188.08c-4.09 5.45 1.36 5.45-4.09 6.81-2.72-2.72 0-1.36-2.72-6.81-15-1.37-32.71 0-49.07 0-17.72 0-12.27-2.73-23.17-2.73-39.52 0-80.41 1.36-121.3 0 1.36 4.09 23.17 2.73 31.35 2.73 25.89 0 79.05-1.37 98.13 0-6.82 6.81-5.45 21.81-4.09 31.35 1.36 16.36 29.98 6.82 62.69 10.91l35.44-1.36z"/>
  <path class="fil2" d="m836.73 805h29.98v-9.54h16.36v-113.16h-2.73v-14.99c-9.54 0-21.81 1.36-28.62-1.37v32.72h-13.63l-1.36 106.34z"/>
  <path class="fil3" d="m1136.6 698.66c25.89 2.73 58.6 0 85.86 0 15 0 76.33 2.73 85.87-1.36 0 0 31.35-25.9 32.71-25.9h-204.44v27.26z"/>
  <path class="fil2" d="m1271.5 149.24c17.72 4.09 38.16 2.73 57.24 2.73h29.99c9.54 0 21.8 2.73 24.53-6.82-4.09-10.9-19.08-23.17-23.17-34.08-9.54-6.82-14.99-4.09-27.26-4.09h-29.98c-19.09 0-42.25-1.36-61.34 0 4.09 10.91 29.99 32.72 29.99 42.26z"/>
  <path class="fil3" d="m527.34 668.67v102.25h62.7c-2.73-5.45-12.27-6.82-23.17-21.81-13.63-17.73-12.27-46.36 4.09-64.08 10.9-10.91 14.99-10.91 27.25-16.36h-70.87z"/>
  <path class="fil7" d="m1721.3 787.28h-14.99v28.63h-16.35v-28.63h-13.63v-15l-65.42-1.36c5.45 17.72 8.17 31.36 9.54 50.44h100.85v-34.08z"/>
  <path class="fil9" d="m168.89 431.45c2.73-10.91 2.73-53.17 1.37-66.8-4.09 4.09-2.73 4.09-5.46 9.54 5.46 0 2.73-1.36 5.46 1.36 0 5.46-1.37 8.18-1.37 13.64v12.27c-2.72 12.27-31.35 73.62-38.16 88.61-6.81 19.09-5.45 17.73-4.09 43.63 2.73 47.72 2.73 91.34 4.09 137.7 1.36 14.99 1.36 34.08 2.73 49.08l88.59-1.37c5.45-6.81 19.08-49.08 47.7-62.71 21.81-9.54 72.23-13.63 96.77-12.27 5.45-8.18 4.09-64.08 4.09-77.71 0-25.9 1.36-53.17 2.72-79.07l2.73-158.15-177.18 2.73c0 4.09-1.37 6.81-4.09 10.9-2.73 5.46-9.54 21.82-9.54 27.27l10.9-19.09c4.09-9.54 2.73-14.99 10.9-14.99 17.72-1.37 36.8 1.36 54.52-1.37 10.9-1.36 103.58-2.72 111.76 0 1.36 9.55-2.72 132.25-4.09 152.7 0 24.54 0 53.17-1.36 76.34-2.73 24.54 0 51.81-2.73 76.35-28.62 1.36-73.59 1.36-98.13 13.63-20.44 10.91-39.52 43.63-47.7 64.08l-81.78-1.36c-2.72-5.46-4.08-70.9-4.08-83.17s-5.46-122.7-4.09-128.15l39.52-91.34c1.37 14.99-2.72 13.63 0 17.72z"/>
  <path class="fil2" d="m1390.1 145.15c23.17 5.46 68.15-2.72 92.68 2.73 0-9.54-2.72-13.63 6.82-15l-13.63-21.81c-8.18-1.36-94.04 0-107.67 0 4.09 8.18 21.8 27.27 21.8 34.08z"/>
  <path class="fil3" d="m647.28 860.9v-24.54-9.54l-35.44-1.37v-46.35h-27.26c1.37 34.08 1.37 64.08 1.37 81.8h61.33z"/>
  <path class="fil7" d="m1316.5 822.73c2.72-76.35 69.5-117.25 119.93-117.25s117.21 42.26 119.94 117.25h29.98c-2.72-80.44-66.78-144.52-149.92-144.52-79.05 0-145.83 64.08-148.56 144.52h28.63z"/>
  <path class="fil4" d="m895.33 671.4h49.07 12.26 155.38l-1.37-10.91c-5.45-1.36-205.8-2.73-216.7 0-2.73 5.45-2.73 6.82 1.36 10.91z"/>
  <path class="fil2" d="m87.12 635.95v6.82c2.72 5.45 4.09 31.35 5.45 38.17 0 6.82 1.36 13.63 2.72 20.45 1.37 9.54 4.09 8.18 12.27 8.18 6.82 0 10.9 0 16.36-1.36 2.72-8.18 1.36-38.18 1.36-47.72 0-21.81 5.45-29.99-19.08-28.63-9.54 0-12.27-1.36-19.08 4.09z"/>
  <path class="fil4" d="m1722.6 671.4v42.26h1.36v-42.26c13.63-1.37 76.32-1.37 85.86 0l-1.36-10.91c-9.54-2.73-91.31-1.36-109.03-1.36-14.99 0-100.86-1.37-107.67 1.36v9.54c21.8 2.73 121.3-2.72 130.84 1.37z"/>
  <path class="fil4" d="m1125.7 671.4h10.9l5.45-1.37h6.82 13.62c31.35 0 175.82 1.37 182.64-1.36v-9.54h-219.43v12.27z"/>
  <path class="fil7" d="m268.39 866.35c-13.63-44.99-1.37-76.34 10.9-100.88 16.35-30 43.61-43.63 57.24-49.08 49.07-23.18 106.31-5.46 139.02 35.44 6.82 6.82 16.36 21.82 23.17 49.08 0 0 6.82 28.63-2.73 64.08h12.27c1.36-51.81 0-53.17 0-55.9-1.36-9.54-5.45-25.9-9.54-34.08v-1.36c-2.73-16.36-28.62-43.63-39.52-51.81-16.36-12.27-24.54-17.72-53.16-24.54-24.53-2.73-51.79-1.36-73.6 9.54-5.45 2.73-43.61 16.36-65.42 57.26-5.45 10.91-10.9 23.18-13.63 44.99-1.36 25.91 1.37 54.54-4.08 57.26h19.08z"/>
  <path class="fil4" d="m362.43 843.18c0 2.72-4.09-4.09 1.36 2.72 5.45 8.18 21.81 10.91 32.71 4.09 10.9-5.45 20.44-29.99 9.54-34.08-6.81-5.45-10.9-21.81-36.8-10.91-19.08 9.55-6.81 36.81-6.81 38.18z"/>
  <path class="fil2" d="m170.26 364.65c1.36 13.63 1.36 55.89-1.37 66.8 4.09 4.09 2.73 19.09 2.73 24.54 0 8.18-2.73 20.45 0 28.63 17.72 2.73 13.63-1.36 13.63-39.54 0-10.9-2.73-44.99 1.36-51.8-4.09-5.46-1.36-42.27-1.36-51.81l-4.09-1.36c-8.18 0-9.54-1.37-10.9 6.81 0 6.82 1.36 10.91 0 17.73z"/>
  <path class="fil3" d="m734.51 580.05c2.72 30 50.42 28.63 47.7-4.09-1.36-31.35-50.43-28.63-47.7 4.09z"/>
  <path class="fil2" d="m734.51 580.05c-2.73-32.72 46.34-35.44 47.7-4.09 2.72 32.72-44.98 34.09-47.7 4.09zm-2.73-20.45-644.66-468.98 644.66 468.98z"/>
  <polygon class="fil5" points="1090.2 859.54 1097 871.81 1237.4 871.81 1242.9 859.54"/>
  <path class="fil7" d="m239.76 511.89 5.46-1.37c0-9.54-1.37 1.37 6.81-19.08 2.73-6.82 5.45-13.64 8.18-20.45 6.81-16.36 47.7-117.25 51.79-124.07l-8.18-1.36c-8.18 15-58.6 147.24-68.14 163.6 2.72 2.73-1.37 1.36 4.08 2.73z"/>
  <path class="fil2" d="m644.55 310.11c2.73 5.46 4.09 9.55 8.18 13.64 5.45-10.91-9.54-43.63 23.17-40.9 20.44 1.36 19.08 24.54 23.17 40.9l6.81-9.55c4.09-21.81-2.72-42.26-27.25-43.62-10.91 0-19.08 2.72-25.9 10.91-8.18 9.54-8.18 16.35-8.18 28.62z"/>
  <polygon class="fil2" points="726.33 860.9 741.32 860.9 741.32 790.01 726.33 790.01"/>
  <path class="fil2" d="m694.98 860.9h14.99v-70.89h-14.99v70.89z"/>
  <path class="fil2" d="m665 860.9h14.99v-70.89h-14.99v70.89z"/>
  <path class="fil2" d="m832.64 145.15c9.54 2.73 29.98-24.54 44.97-5.45 17.72 19.09-12.26 29.99-17.71 40.9h5.45c10.9-1.36 12.26-5.45 20.44-12.27 4.09-9.54 6.82-19.09 1.36-29.99-6.81-10.91-10.9-10.91-21.8-15-15-1.36-29.99 5.45-32.71 21.81z"/>
  <path class="fil0" d="m1501.8 237.86v-4.09c-4.09 4.09 0 2.72-5.45 4.09-5.45 2.72-12.26 8.18-17.72 0-5.45-9.55 1.37-12.27 8.18-15 9.54-4.09 8.18-5.45 12.27-13.63 2.72-10.91 0-10.91-5.45-17.72h-6.82c-10.9 10.9-9.54 9.54-2.72 21.81 0 0-25.9 10.91-12.27 29.99 9.54 12.27 28.62 8.18 29.98-5.45z"/>
  <polygon class="fil3" points="1135.2 856.81 1184.3 856.81 1184.3 840.45 1135.2 840.45"/>
  <path class="fil3" d="m1482.8 147.88c0 5.45-1.36 17.72 0 23.18 2.73 5.45 4.09 0 4.09 8.18v12.27h6.82c-2.73-24.54 4.08-12.27 4.08-27.27 0-8.18 1.37-21.81-1.36-29.99l-6.81-1.37c-9.54 1.37-6.82 5.46-6.82 15z"/>
  <path class="fil4" d="m1514.1 661.85 13.63 6.82c6.81 2.73 40.89 2.73 49.06 1.36v-10.9h-62.69c-1.36 1.36-1.36 0 0 2.72z"/>
  <path class="fil3" d="m670.45 292.39c-17.72 10.91-2.73 31.36 12.27 23.18 14.99-8.18 2.72-32.72-12.27-23.18z"/>
  <path class="fil3" d="m855.81 141.06c-16.36 9.55-2.73 31.36 12.26 23.18 15-5.45 5.45-31.36-12.26-23.18z"/>
  <path class="fil3" d="m303.82 548.7h36.8c8.18 0 8.18 1.36 12.27-1.37v-6.81c-6.82-4.09-40.89-2.73-49.07-1.37v9.55z"/>
  <polygon class="fil5" points="366.52 776.37 395.14 776.37 395.14 758.65 367.88 758.65"/>
  <polygon class="fil5" points="366.52 896.35 395.14 896.35 395.14 879.99 366.52 879.99"/>
  <polygon class="fil5" points="317.45 836.36 333.81 836.36 333.81 809.09 316.09 809.09"/>
  <polygon class="fil3" points="1136.6 833.63 1184.3 833.63 1184.3 824.09 1135.2 824.09"/>
  <polygon class="fil5" points="438.75 836.36 455.11 836.36 455.11 809.09 438.75 809.09"/>
  <path class="fil3" d="m187.97 802.28-1.36-8.18h-46.34c-2.73 5.45-2.73 4.09-1.36 9.54l49.06-1.36z"/>
  <path class="fil3" d="m1127 153.33h9.54l-36.8-54.53h-9.54c6.81 13.63 36.8 40.9 36.8 54.53z"/>
  <path class="fil3" d="m1259.2 149.24h12.27c0-9.54-25.9-31.35-29.99-42.26l-9.54-1.36c5.46 13.63 27.26 28.63 27.26 43.62z"/>
  <polygon class="fil3" points="138.91 788.64 187.97 787.28 186.61 779.1 138.91 780.46"/>
  <path class="fil3" d="m138.91 830.91c10.9-1.37 35.43 0 49.06 0v-8.18h-49.06v8.18z"/>
  <path class="fil10" d="m566.87 580.05 17.71 5.46c5.46 0 2.73 2.72 4.09-2.73v-16.36h-21.8v13.63z"/>
  <path class="fil3" d="m141.63 810.46h-1.36l-1.36 5.45c1.36 1.36-2.73 2.73 12.26 1.36l36.8 1.37v-8.18h-44.97-1.37z"/>
  <path class="fil3" d="m1383.3 145.15h6.81c0-6.81-17.71-25.9-21.8-34.08h-8.18c4.09 10.91 19.08 23.18 23.17 34.08z"/>
  <path class="fil2" d="m584.58 585.51c5.46 4.09 0 0 6.82 2.72 1.36 0 4.09 1.37 5.45 1.37v-20.45c-2.72-4.09 0 0-2.72-2.73-2.73-2.73 0 2.73-1.37-1.36-1.36 0-1.36 0-1.36-1.37l-24.53 1.37v1.36h21.8v16.36c-1.36 5.45 1.37 2.73-4.09 2.73z"/>
  <polygon class="fil2" points="633.65 601.87 633.65 589.6 596.85 589.6"/>
  <path class="fil2" d="m362.43 843.18c0-1.37-12.27-28.63 6.81-38.18 25.9-10.9 29.99 5.46 36.8 10.91-5.45-15-23.17-20.45-36.8-12.27-12.26 6.82-19.08 28.63-6.81 39.54z"/>
  <path class="fil3" d="m1223.8 856.81h8.17c0-5.45 1.37-12.27-1.36-16.36h-6.81v16.36z"/>
  <polygon class="fil3" points="1232 825.45 1223.8 824.09 1223.8 833.63 1232 833.63"/>
  <path class="fil11" d="m1496.4 237.86c5.45-1.37 1.36 0 5.45-4.09v4.09c2.73-2.73 2.73-1.37 4.09-5.46 2.73-4.09 2.73-2.72 1.37-5.45-4.09-2.72-8.18 6.82-10.91 10.91z"/>
  <path class="fil3" d="m1427.6 747.74c44.97-4.09 81.77 25.91 87.22 69.53 5.46 43.63-25.89 81.8-69.51 87.26-42.25 4.09-83.13-27.27-87.22-69.53-2.73-43.63 25.89-81.8 69.51-87.26zm-83.14 1.37c-14.99 16.36-28.62 53.17-27.26 74.98-4.09 59.99 46.34 113.16 103.58 121.34 34.08 4.09 61.33-5.46 88.59-23.18 16.36-12.27 39.53-43.63 43.62-68.17 2.72-12.27 5.45-24.54 2.72-40.9-2.72-19.08-12.26-47.71-25.89-61.35-32.71-40.9-89.96-58.62-139.02-35.44-24.53 10.9-28.62 13.63-46.34 32.72z"/>
  <path class="fil6" d="m1420.8 879.99h28.62v16.36h-28.62v-16.36zm72.24-70.9h16.35v27.27h-16.35v-27.27zm-122.67 0h17.72v27.27h-16.35l-1.37-27.27zm89.96 6.82c10.9 4.09 1.36 28.63-9.54 34.08-10.91 6.82-27.26 4.09-32.71-4.09-5.46-6.81-1.37 0-1.37-2.72-12.26-10.91-5.45-32.72 6.82-39.54 13.63-8.18 31.35-2.73 36.8 12.27zm-38.16-57.26h27.25v17.72h-28.62l1.37-17.72zm5.45-10.91c-43.62 5.46-72.24 43.63-69.51 87.26 4.09 42.26 44.97 73.62 87.22 69.53 43.62-5.46 74.97-43.63 69.51-87.26-5.45-43.62-42.25-73.62-87.22-69.53z"/>
  <path class="fil4" d="m1416.7 843.18c0 2.72-4.09-4.09 1.37 2.72 5.45 8.18 21.8 10.91 32.71 4.09 10.9-5.45 20.44-29.99 9.54-34.08-6.82-5.45-10.91-21.81-36.8-10.91-19.08 9.55-6.82 36.81-6.82 38.18z"/>
  <polygon class="fil5" points="1420.8 776.37 1449.4 776.37 1449.4 758.65 1422.2 758.65"/>
  <polygon class="fil5" points="1420.8 896.35 1449.4 896.35 1449.4 879.99 1420.8 879.99"/>
  <polygon class="fil5" points="1371.7 836.36 1388.1 836.36 1388.1 809.09 1370.4 809.09"/>
  <polygon class="fil5" points="1493 836.36 1509.4 836.36 1509.4 809.09 1493 809.09"/>
  <path class="fil2" d="m1416.7 843.18c0-1.37-12.26-28.63 6.82-38.18 25.89-10.9 29.98 5.46 36.8 10.91-5.45-15-23.17-20.45-36.8-12.27-12.27 6.82-19.08 28.63-6.82 39.54z"/>
 
</svg>